<?xml version="1.0" encoding="iso-8859-1"?>
<!-- Generator: Adobe Illustrator 19.0.0, SVG Export Plug-In . SVG Version: 6.00 Build 0)  -->
<svg xmlns="http://www.w3.org/2000/svg" xmlns:xlink="http://www.w3.org/1999/xlink" version="1.1" id="Capa_1" x="0px" y="0px" viewBox="0 0 512 512" style="enable-background:new 0 0 512 512;" xml:space="preserve" width="512" height="512">
<g>
	<g>
		<path style="fill:#F9C295;" d="M363.487,202.838h-48.632H134.484v136.779c0,17.225,13.958,31.183,31.183,31.183h16.511v83.23    h154.745v-83.23h8.556c6.575,0,12.744-1.801,18.007-4.941c10.329-6.142,17.239-17.406,17.239-30.29V202.838H363.487z"/>
		<path style="fill:#E59F6A;" d="M363.487,202.838h-8.261v111.974c0,12.884-6.909,24.148-17.239,30.29    c-5.262,3.141-11.432,4.941-18.007,4.941h-8.556v103.988h25.5v-83.23h8.556c6.575,0,12.744-1.801,18.007-4.941    c10.329-6.142,17.239-17.406,17.239-30.29V202.838H363.487z"/>
		<g>
			<path style="fill:#5C9CEE;" d="M114.005,428.395c0,3.891-0.821,7.291-2.26,10.265c-9.977,20.647-49.608,20.647-49.608,20.647     l7.099-26.776l-21.948-15.808c0,0,47.604,0,51.591-27.181C107.684,402.034,114.005,414.441,114.005,428.395z"/>
			<path style="fill:#3580D3;" d="M111.745,438.659c1.439-2.974,2.26-6.374,2.26-10.265c0-13.953-6.321-26.36-15.126-38.853     c-2.089-2.953-4.306-5.926-6.63-8.911c0-0.011-0.011-0.021-0.021-0.032c-5.948-12.876-9.881-27.32-9.881-44.108     c0-27.107,6.641-45.984,17.183-59.063C80.823,312.976,145.631,390.021,111.745,438.659z"/>
			<path style="fill:#5C9CEE;" d="M397.995,428.395c0,3.891,0.821,7.291,2.26,10.265c9.977,20.647,49.608,20.647,49.608,20.647     l-7.099-26.776l21.948-15.808c0,0-47.604,0-51.591-27.181C404.316,402.034,397.995,414.441,397.995,428.395z"/>
			<path style="fill:#3580D3;" d="M400.255,438.659c-1.439-2.974-2.26-6.374-2.26-10.265c0-13.953,6.321-26.36,15.126-38.853     c2.089-2.953,4.306-5.926,6.63-8.911c0-0.011,0.011-0.021,0.021-0.032c5.948-12.876,9.881-27.32,9.881-44.108     c0-27.107-6.641-45.984-17.183-59.063C431.177,312.976,366.369,390.021,400.255,438.659z"/>
			<path style="fill:#5C9CEE;" d="M466.214,283.439c0-103.64-98.78-116.548-144.263-116.548H190.048     c-45.483,0-144.263,12.908-144.263,116.548c0,43.607,26.477,71.353,46.442,97.16c-5.948-12.876-9.881-27.32-9.881-44.108     c0-27.106,6.641-45.984,17.183-59.063c0.011,0,0.011-0.011,0.011-0.011c29.729-36.902,90.455-27.735,120.354-27.735h72.211     c29.899,0,90.625-9.167,120.354,27.735c0,0,0,0.011,0.011,0.011c10.542,13.079,17.183,31.957,17.183,59.063     c0,16.788-3.933,31.232-9.881,44.108C439.737,354.792,466.214,327.046,466.214,283.439z"/>
		</g>
		<g>
			<path style="fill:#F4B07D;" d="M163.109,140.556c-15.809,0-28.625,12.816-28.625,28.625v60.573     c0,15.809,12.816,28.625,28.625,28.625s28.625-12.816,28.625-28.625v-23.463l2-10.074l-2-11.379V169.18     C191.734,153.371,178.918,140.556,163.109,140.556z"/>
			<path style="fill:#FCD0AE;" d="M220.358,140.556c-15.809,0-28.625,12.816-28.625,28.625v60.573     c0,15.809,12.816,28.625,28.625,28.625s28.625-12.816,28.625-28.625V169.18C248.983,153.371,236.167,140.556,220.358,140.556z"/>
			<path style="fill:#EF9E67;" d="M277.608,140.556c-15.809,0-28.625,12.816-28.625,28.625v60.573     c0,15.809,12.816,28.625,28.625,28.625s28.625-12.816,28.625-28.625V169.18C306.232,153.371,293.417,140.556,277.608,140.556z"/>
			<path style="fill:#FCD0AE;" d="M334.857,140.556c-15.809,0-28.625,12.816-28.625,28.625v60.573     c0,15.809,12.816,28.625,28.625,28.625s28.625-12.816,28.625-28.625V169.18C363.482,153.371,350.666,140.556,334.857,140.556z"/>
		</g>
		<path style="fill:#F9A973;" d="M380.719,217.258v-15.051c0-12.802-10.378-23.179-23.179-23.179h-97.865    c-5.905,0-10.692,4.787-10.692,10.692v13.856c0,18.735,15.188,33.923,33.923,33.923h37.924v27.578    c0,5.86-4.751,10.611-10.611,10.611h-5.706c-27.607,0-49.986,22.38-49.986,49.986v8.206c0,14.495,16.412,36.923,49.986,36.923    h32.411h8.556c6.575,0,12.744-1.801,18.007-4.941c10.329-6.142,17.239-17.406,17.239-30.29V217.258H380.719z"/>
		<path style="fill:#E88D4F;" d="M380.719,217.258v-14.419v-0.632c0-12.802-10.378-23.18-23.18-23.18h-25.37    c12.802,0,23.18,10.378,23.18,23.18v0.632h-0.123v111.974c0,12.884-6.909,24.148-17.239,30.29    c-5.262,3.141-11.432,4.941-18.007,4.941l0,0c-4.726,0-8.556,3.831-8.556,8.556v12.201h8.686h16.814h8.556    c0.822,0,1.637-0.028,2.445-0.083c0.803-0.055,1.599-0.137,2.387-0.245c0.397-0.054,0.788-0.135,1.183-0.203    c0.396-0.068,0.797-0.124,1.189-0.205c0.691-0.143,1.372-0.314,2.047-0.497c0.144-0.039,0.288-0.077,0.432-0.118    c0.657-0.187,1.307-0.39,1.947-0.614c0.106-0.037,0.21-0.078,0.316-0.116c0.586-0.211,1.166-0.438,1.74-0.68    c0.102-0.043,0.205-0.083,0.306-0.127c0.618-0.268,1.226-0.555,1.825-0.856c0.131-0.066,0.261-0.134,0.391-0.202    c0.609-0.316,1.211-0.644,1.798-0.994c10.329-6.142,17.239-17.406,17.239-30.29V217.258H380.719z"/>
		<path style="fill:#ED5575;" d="M346.008,504.5H173.095c-6.962,0-12.605-5.644-12.605-12.605v-52.262    c0-6.962,5.644-12.605,12.605-12.605h172.914c6.962,0,12.605,5.644,12.605,12.605v52.262    C358.614,498.856,352.97,504.5,346.008,504.5z"/>
		<path style="fill:#CC3A60;" d="M346.009,427.028h-23.921c6.962,0,12.605,5.644,12.605,12.605v52.262    c0,6.962-5.644,12.605-12.605,12.605h23.921c6.962,0,12.605-5.644,12.605-12.605v-52.262    C358.614,432.671,352.97,427.028,346.009,427.028z"/>
		<circle style="fill:#EBEEF2;" cx="203.809" cy="465.764" r="14.359"/>
		<g>
			<path style="fill:#F2DF33;" d="M233.624,42.074c-15.93,5.1-21.963,11.133-27.063,27.062c-0.856,2.675-4.649,2.675-5.505,0     c-5.1-15.93-11.133-21.963-27.063-27.062c-2.675-0.856-2.675-4.649,0-5.505c15.93-5.1,21.963-11.133,27.063-27.062     c0.856-2.675,4.649-2.675,5.505,0c5.1,15.93,11.133,21.963,27.063,27.062C236.299,37.425,236.299,41.218,233.624,42.074z"/>
		</g>
		<g>
			<path style="fill:#5C9CEE;" d="M130.588,120.747c-15.93,5.1-21.963,11.133-27.062,27.063c-0.856,2.675-4.649,2.675-5.505,0     c-5.099-15.93-11.133-21.963-27.062-27.063c-2.675-0.856-2.675-4.649,0-5.505c15.93-5.1,21.963-11.133,27.062-27.063     c0.856-2.675,4.649-2.675,5.505,0c5.1,15.93,11.133,21.963,27.062,27.063C133.263,116.098,133.263,119.891,130.588,120.747z"/>
		</g>
		<g>
			<path style="fill:#EBEEF2;" d="M439.778,107.298c-15.93,5.1-21.963,11.133-27.063,27.062c-0.856,2.675-4.649,2.675-5.505,0     c-5.1-15.93-11.133-21.963-27.063-27.062c-2.675-0.856-2.675-4.649,0-5.505c15.93-5.1,21.963-11.133,27.063-27.062     c0.856-2.675,4.649-2.675,5.505,0c5.1,15.93,11.133,21.963,27.063,27.062C442.453,102.649,442.453,106.441,439.778,107.298z"/>
		</g>
	</g>
	<g>
		<path d="M464.719,409.223c-0.392-0.001-37.482-0.594-43.52-18.062c1.421-1.943,2.913-3.924,4.469-5.923    c0.016-0.021,0.03-0.042,0.046-0.063c2.216-2.863,4.479-5.709,6.876-8.722c19.274-24.231,41.12-51.696,41.12-93.012    c0-2.992-0.081-6.023-0.24-9.01c-0.222-4.137-3.76-7.322-7.889-7.089c-4.137,0.221-7.311,3.752-7.09,7.889    c0.146,2.721,0.219,5.483,0.219,8.21c0,25.607-9.696,45.229-21.98,62.829c0.005-0.053,0.006-0.106,0.01-0.159    c0.125-1.457,0.218-2.92,0.285-4.39c0.011-0.244,0.02-0.488,0.029-0.732c0.059-1.492,0.098-2.989,0.098-4.497    c0-26.802-6.34-48.257-18.844-63.77c-0.007-0.009-0.015-0.016-0.021-0.024c-0.021-0.026-0.042-0.052-0.063-0.077    c-7.649-9.473-17.726-16.86-29.998-22.014v-33.348c0-0.108-0.002-0.216-0.007-0.323v-14.728c0-7.641-2.814-14.632-7.451-20.008    c13.714,3.973,25.797,9.39,36.06,16.197c18.229,12.09,30.653,28.639,36.93,49.186c0.987,3.231,3.958,5.311,7.17,5.311    c0.726,0,1.464-0.106,2.193-0.329c3.962-1.21,6.192-5.402,4.982-9.364c-12.54-41.055-46.187-68.262-97.468-78.953    c-2.414-17.59-17.532-31.187-35.775-31.187c-11.646,0-22.017,5.543-28.629,14.124c-6.61-8.58-16.977-14.124-28.621-14.124    c-11.646,0-22.015,5.542-28.627,14.121c-6.611-8.581-16.98-14.125-28.625-14.125c-11.645,0-22.014,5.544-28.625,14.125    c-6.611-8.581-16.979-14.125-28.624-14.125c-19.458,0-35.365,15.467-36.09,34.752C85.265,179.93,38.29,209.916,38.29,283.44    c0,41.315,21.846,68.78,41.12,93.012c2.397,3.013,4.661,5.86,6.877,8.723c0.016,0.021,0.029,0.043,0.045,0.064    c1.556,1.998,3.049,3.98,4.469,5.922c-6.037,17.469-43.127,18.061-43.512,18.062c-3.255,0-6.139,2.1-7.138,5.197    s0.113,6.486,2.755,8.389l17.758,12.79l-5.777,21.786c-0.597,2.25-0.114,4.65,1.306,6.496c1.42,1.845,3.616,2.926,5.944,2.926    c0.439,0,10.9-0.032,22.754-2.774c16.82-3.892,28.012-11.145,33.308-21.543c20.738-30.327,7.95-68.725-3.35-102.625    c-7.788-23.365-15.141-45.448-8.989-58.307c8.716-10.543,21.018-17.624,37.525-21.564c5.676,3.715,12.45,5.884,19.725,5.884    c9.473,0,18.102-3.671,24.551-9.658c2.976,0.049,5.835,0.129,8.37,0.213c6.425,5.863,14.965,9.444,24.328,9.444    c11.644,0,22.013-5.544,28.624-14.124c6.612,8.582,16.982,14.126,28.628,14.126c4.143,0,7.5-3.358,7.5-7.5s-3.357-7.5-7.5-7.5    c-9.374,0-17.331-6.14-20.087-14.606c7.017,5.46,15.823,8.723,25.382,8.723h19.216c2.533,5.41,6.403,10.161,11.209,13.747v6.331    c0,1.715-1.396,3.111-3.11,3.111h-5.706c-31.698,0-57.486,25.788-57.486,57.486c0,4.142,3.357,7.5,7.5,7.5s7.5-3.358,7.5-7.5    c0-23.427,19.06-42.486,42.486-42.486h5.706c9.986,0,18.11-8.125,18.11-18.111v-10.233c0-0.008,0-0.017,0-0.025v-17.319    c0-4.142-3.357-7.5-7.5-7.5h-37.925c-14.569,0-26.422-11.853-26.422-26.423v-13.855c0-1.76,1.432-3.192,3.191-3.192h46.498    c0.02,0,0.039,0.003,0.058,0.003s0.038-0.003,0.058-0.003h51.251c8.646,0,15.679,7.034,15.679,15.68v15.051    c0,0.108,0.002,0.216,0.007,0.323V335.57c0,0.756-0.04,1.504-0.099,2.247c-0.684,8.296-5.112,15.944-12.005,20.658    c-0.481,0.327-0.973,0.644-1.479,0.944c-0.53,0.317-1.071,0.614-1.62,0.894c-3.863,1.959-8.162,2.987-12.543,2.987h-8.561    c-4.143,0-7.5,3.358-7.5,7.5v48.728H189.68V370.8c0-4.142-3.357-7.5-7.5-7.5h-16.51c-13.063,0-23.689-10.623-23.689-23.68v-53.79    c0-4.142-3.357-7.5-7.5-7.5s-7.5,3.358-7.5,7.5v53.79c0,21.328,17.356,38.68,38.689,38.68h9.01v41.228h-1.585    c-11.086,0-20.105,9.02-20.105,20.105v52.262c0,11.086,9.02,20.105,20.105,20.105h118.991c4.143,0,7.5-3.358,7.5-7.5    s-3.357-7.5-7.5-7.5H173.095c-2.815,0-5.105-2.29-5.105-5.105v-52.262c0-2.815,2.29-5.105,5.105-5.105h9.046    c0.013,0,0.026,0.002,0.039,0.002s0.026-0.002,0.039-0.002h154.663c0.013,0,0.026,0.002,0.039,0.002s0.026-0.002,0.039-0.002h9.05    c2.814,0,5.104,2.291,5.104,5.105v52.262c0,2.815-2.29,5.105-5.104,5.105h-23.922c-4.143,0-7.5,3.358-7.5,7.5s3.357,7.5,7.5,7.5    h23.922c11.086,0,20.104-9.019,20.104-20.105v-52.262c0-11.086-9.019-20.105-20.104-20.105h-1.589v-3.792    c0-0.026,0.004-0.051,0.004-0.077v-37.357h1.057c6.723,0,13.324-1.578,19.257-4.577c0.024-0.012,0.05-0.022,0.074-0.035    c0.025-0.013,0.049-0.028,0.074-0.041c0.825-0.421,1.639-0.866,2.436-1.342c12.896-7.665,20.908-21.742,20.908-36.737    c0-0.033-0.004-0.064-0.005-0.097V267.16c7.15,3.765,13.063,8.521,17.905,14.379c6.169,12.855-1.187,34.949-8.98,58.325    c-11.301,33.902-24.088,72.302-3.345,102.631c5.3,10.397,16.49,17.647,33.304,21.538c11.854,2.742,22.314,2.774,22.754,2.774    c2.328,0,4.524-1.081,5.944-2.926c1.42-1.846,1.902-4.246,1.306-6.496l-5.777-21.786l17.758-12.79    c2.639-1.901,3.748-5.285,2.753-8.381C470.852,411.332,467.971,409.23,464.719,409.223z M105.658,433.781    c-0.189,0.55-0.41,1.086-0.664,1.61c-0.001,0.002-0.002,0.004-0.002,0.006c-3.833,7.931-14.746,11.97-23.225,13.962    c-3.436,0.807-6.771,1.348-9.687,1.71l4.405-16.617c0.797-3.005-0.343-6.191-2.866-8.008l-6.174-4.447    c11.284-2.32,24.608-7.061,32.462-16.736c0.064,0.119,0.135,0.241,0.198,0.36c0.085,0.16,0.167,0.318,0.251,0.477    c0.292,0.555,0.572,1.106,0.842,1.652c0.065,0.131,0.132,0.264,0.196,0.394c0.317,0.652,0.618,1.298,0.904,1.938    c0.055,0.124,0.106,0.246,0.161,0.37c0.233,0.531,0.455,1.058,0.667,1.582c0.064,0.158,0.129,0.316,0.191,0.474    c0.248,0.628,0.484,1.253,0.702,1.873c0.012,0.033,0.022,0.066,0.034,0.1c0.204,0.584,0.391,1.163,0.568,1.74    c0.05,0.162,0.098,0.323,0.146,0.484c0.155,0.525,0.301,1.049,0.435,1.569c0.023,0.088,0.048,0.177,0.07,0.265    c0.15,0.597,0.282,1.19,0.404,1.782c0.031,0.149,0.058,0.297,0.087,0.445c0.093,0.477,0.177,0.953,0.251,1.427    c0.022,0.141,0.047,0.282,0.067,0.423c0.086,0.584,0.16,1.167,0.219,1.75c0.011,0.111,0.019,0.223,0.029,0.334    c0.046,0.487,0.082,0.974,0.109,1.461c0.009,0.159,0.018,0.318,0.025,0.477c0.026,0.586,0.043,1.172,0.043,1.758    C106.505,430.351,106.227,432.127,105.658,433.781z M114.164,400.139c-0.112-0.221-0.229-0.436-0.342-0.656    c-0.147-0.285-0.294-0.568-0.444-0.85c-0.282-0.532-0.568-1.057-0.856-1.579c-0.136-0.246-0.271-0.494-0.408-0.737    c-0.419-0.741-0.842-1.473-1.271-2.192c-0.05-0.084-0.101-0.165-0.152-0.249c-0.388-0.646-0.78-1.283-1.174-1.911    c-0.156-0.249-0.313-0.493-0.47-0.74c-0.294-0.461-0.587-0.917-0.882-1.367c-0.17-0.259-0.338-0.516-0.508-0.771    c-0.299-0.451-0.598-0.895-0.897-1.334c-0.149-0.219-0.297-0.439-0.445-0.655c-0.407-0.593-0.813-1.177-1.215-1.75    c-0.03-0.042-0.059-0.086-0.089-0.128c0-0.001-0.001-0.001-0.002-0.002c-0.002-0.003-0.005-0.007-0.007-0.01    c-1.951-2.756-4.064-5.606-6.288-8.481c-0.155-0.342-0.308-0.684-0.458-1.025c-0.157-0.355-0.315-0.711-0.468-1.067    c-0.206-0.481-0.404-0.962-0.602-1.443c-0.143-0.347-0.288-0.694-0.426-1.042c-0.197-0.493-0.385-0.986-0.573-1.479    c-0.128-0.335-0.258-0.671-0.382-1.006c-0.187-0.507-0.366-1.015-0.544-1.522c-0.113-0.323-0.23-0.645-0.339-0.968    c-0.178-0.524-0.347-1.048-0.515-1.572c-0.099-0.308-0.201-0.615-0.296-0.923c-0.17-0.546-0.329-1.092-0.488-1.638    c-0.084-0.287-0.171-0.573-0.251-0.86c-0.161-0.574-0.312-1.148-0.462-1.723c-0.068-0.261-0.14-0.522-0.206-0.784    c-0.153-0.607-0.295-1.215-0.436-1.823c-0.053-0.231-0.111-0.461-0.162-0.692c-0.144-0.646-0.277-1.294-0.407-1.943    c-0.039-0.194-0.082-0.388-0.12-0.583c-0.136-0.7-0.26-1.402-0.38-2.104c-0.024-0.143-0.052-0.286-0.076-0.43    c-0.128-0.774-0.245-1.55-0.354-2.327c-0.01-0.073-0.023-0.146-0.033-0.219c-0.59-4.295-0.883-8.642-0.883-13.066    c0-0.205,0.008-0.402,0.009-0.605c0.006-1.494,0.035-2.966,0.084-4.418c0.021-0.606,0.051-1.203,0.079-1.802    c0.052-1.109,0.117-2.205,0.195-3.289c0.042-0.583,0.081-1.168,0.13-1.744c0.122-1.423,0.264-2.827,0.431-4.206    c0.042-0.345,0.087-0.686,0.132-1.028c0.173-1.322,0.367-2.621,0.583-3.901c0.032-0.192,0.069-0.378,0.103-0.569    c2.291,9.479,5.621,19.471,9.025,29.681C106.89,363.42,113.284,382.608,114.164,400.139z M93.775,272.621    c-0.02,0.024-0.04,0.048-0.059,0.072c-0.008,0.01-0.017,0.018-0.025,0.028c-12.505,15.513-18.845,36.968-18.845,63.77    c0,1.524,0.04,3.038,0.1,4.547c0.009,0.215,0.016,0.431,0.026,0.646c0.068,1.491,0.162,2.977,0.289,4.455    c0.004,0.044,0.005,0.088,0.009,0.132c-12.284-17.6-21.98-37.222-21.98-62.829c0-50.812,24.787-84.389,73.694-99.945v46.258    c0,6.521,1.746,12.639,4.781,17.926C115.757,252.831,103.01,261.189,93.775,272.621z M241.481,229.791    c-0.021,11.631-9.487,21.087-21.123,21.087c-11.648,0-21.125-9.477-21.125-21.125V211c0-4.142-3.357-7.5-7.5-7.5    s-7.5,3.358-7.5,7.5v18.754c0,11.648-9.477,21.125-21.124,21.125c-11.648,0-21.125-9.477-21.125-21.125v-60.573    c0-11.648,9.477-21.125,21.125-21.125c11.647,0,21.124,9.477,21.124,21.125v11.822c0,4.142,3.357,7.5,7.5,7.5s7.5-3.358,7.5-7.5    v-11.822c0-11.648,9.477-21.125,21.125-21.125c11.635,0,21.102,9.456,21.123,21.086c0,0.013-0.001,0.025-0.001,0.038v60.57    C241.48,229.764,241.481,229.777,241.481,229.791z M298.73,171.527h-39.056c-1.09,0-2.153,0.114-3.191,0.298v-2.645    c0-0.013-0.001-0.026-0.001-0.039c0.021-11.628,9.49-21.082,21.128-21.082c11.646,0,21.12,9.475,21.12,21.12V171.527z     M355.98,171.527h-42.25v-2.347c0-11.646,9.479-21.12,21.13-21.12c11.646,0,21.12,9.475,21.12,21.12V171.527z M404.336,389.099    c-0.166,0.25-0.331,0.5-0.496,0.753c-0.3,0.458-0.598,0.922-0.896,1.39c-0.153,0.24-0.305,0.477-0.457,0.719    c-0.402,0.64-0.801,1.289-1.197,1.949c-0.043,0.071-0.086,0.14-0.129,0.212c-0.43,0.72-0.855,1.455-1.274,2.198    c-0.137,0.243-0.271,0.49-0.407,0.735c-0.288,0.52-0.573,1.044-0.854,1.574c-0.152,0.286-0.302,0.574-0.451,0.864    c-0.112,0.217-0.227,0.429-0.338,0.647c0.878-17.533,7.273-36.718,13.545-55.531c3.403-10.208,6.734-20.202,9.025-29.68    c0.032,0.186,0.069,0.368,0.1,0.555c0.223,1.327,0.426,2.674,0.604,4.047c0.032,0.245,0.066,0.488,0.096,0.735    c0.177,1.441,0.324,2.912,0.451,4.402c0.046,0.543,0.083,1.096,0.123,1.646c0.081,1.126,0.149,2.265,0.202,3.417    c0.026,0.564,0.055,1.126,0.074,1.696c0.052,1.531,0.084,3.083,0.088,4.66c0,0.136,0.006,0.267,0.006,0.404    c0,2.658-0.106,5.288-0.318,7.896c-0.001,0.013-0.003,0.025-0.004,0.038c-0.069,0.847-0.15,1.693-0.242,2.536    c-0.013,0.119-0.03,0.238-0.043,0.358c-0.083,0.736-0.172,1.47-0.272,2.203c-0.025,0.186-0.056,0.37-0.083,0.555    c-0.095,0.666-0.193,1.331-0.303,1.994c-0.038,0.228-0.081,0.455-0.121,0.682c-0.107,0.619-0.216,1.238-0.335,1.856    c-0.05,0.26-0.107,0.52-0.16,0.78c-0.118,0.583-0.237,1.165-0.366,1.746c-0.064,0.287-0.135,0.573-0.201,0.859    c-0.129,0.553-0.257,1.106-0.396,1.658c-0.077,0.305-0.161,0.61-0.241,0.915c-0.14,0.532-0.279,1.065-0.429,1.597    c-0.089,0.316-0.184,0.631-0.276,0.946c-0.152,0.521-0.304,1.041-0.465,1.56c-0.1,0.323-0.207,0.645-0.311,0.967    c-0.165,0.511-0.329,1.023-0.503,1.534c-0.111,0.326-0.228,0.652-0.343,0.978c-0.178,0.508-0.357,1.016-0.544,1.523    c-0.12,0.325-0.247,0.65-0.371,0.975c-0.193,0.507-0.387,1.014-0.589,1.52c-0.13,0.325-0.265,0.649-0.398,0.974    c-0.209,0.508-0.418,1.016-0.636,1.523c-0.137,0.319-0.279,0.638-0.42,0.958c-0.163,0.369-0.328,0.739-0.495,1.108    c-2.227,2.879-4.341,5.73-6.297,8.493c-0.434,0.616-0.872,1.248-1.312,1.889c-0.142,0.207-0.285,0.419-0.427,0.629    C404.945,388.187,404.641,388.639,404.336,389.099z M435.515,434.453l4.409,16.632c-11.786-1.513-28.105-5.735-32.917-15.691    c0-0.001,0-0.001-0.001-0.002c-0.762-1.574-1.231-3.256-1.418-5.098c-0.062-0.614-0.093-1.246-0.093-1.898    c0-0.586,0.018-1.171,0.043-1.756c0.007-0.161,0.016-0.321,0.025-0.482c0.027-0.484,0.063-0.969,0.108-1.454    c0.01-0.113,0.018-0.227,0.03-0.34c0.059-0.581,0.133-1.162,0.218-1.745c0.021-0.145,0.046-0.29,0.069-0.434    c0.074-0.468,0.156-0.937,0.248-1.407c0.03-0.155,0.059-0.311,0.091-0.466c0.12-0.585,0.252-1.173,0.4-1.763    c0.026-0.103,0.056-0.208,0.083-0.311c0.129-0.501,0.27-1.005,0.419-1.511c0.052-0.176,0.104-0.352,0.159-0.528    c0.167-0.542,0.343-1.085,0.533-1.633c0.024-0.068,0.044-0.135,0.068-0.204c0.212-0.603,0.442-1.211,0.683-1.823    c0.072-0.183,0.147-0.366,0.221-0.55c0.196-0.484,0.401-0.97,0.615-1.46c0.069-0.159,0.136-0.317,0.207-0.477    c0.276-0.617,0.567-1.24,0.872-1.869c0.083-0.171,0.171-0.344,0.256-0.516c0.245-0.494,0.498-0.992,0.761-1.493    c0.104-0.199,0.208-0.398,0.314-0.598c0.056-0.104,0.117-0.211,0.173-0.315c7.854,9.676,21.179,14.417,32.463,16.737l-6.174,4.447    C435.857,428.262,434.718,431.447,435.515,434.453z"/>
		<path d="M181.95,465.764c0,12.053,9.806,21.858,21.858,21.858c12.054,0,21.859-9.806,21.859-21.858    c0-12.053-9.806-21.859-21.859-21.859C191.756,443.905,181.95,453.711,181.95,465.764z M210.668,465.764    c0,3.782-3.077,6.858-6.859,6.858s-6.858-3.077-6.858-6.858c0-3.782,3.076-6.859,6.858-6.859S210.668,461.982,210.668,465.764z"/>
		<path d="M171.707,49.217c13.678,4.378,17.828,8.529,22.207,22.207c1.383,4.318,5.359,7.219,9.896,7.219    c4.535,0,8.512-2.901,9.895-7.22c4.379-13.677,8.529-17.828,22.207-22.206v0c4.318-1.382,7.219-5.359,7.219-9.895    c0-4.537-2.9-8.513-7.219-9.896c-13.678-4.378-17.828-8.529-22.207-22.207C212.321,2.901,208.345,0,203.81,0    c-4.536,0-8.513,2.901-9.896,7.219c-4.379,13.677-8.529,17.828-22.207,22.207c-4.318,1.382-7.219,5.359-7.219,9.896    C164.488,43.857,167.389,47.834,171.707,49.217z M203.81,22.739c3.91,7.612,8.969,12.672,16.582,16.582    c-7.613,3.91-12.672,8.969-16.583,16.582c-3.91-7.612-8.969-12.672-16.582-16.582C194.841,35.411,199.898,30.353,203.81,22.739z"/>
		<path d="M68.671,127.89c13.678,4.378,17.828,8.529,22.206,22.204c1.381,4.319,5.357,7.221,9.894,7.222c0,0,0.001,0,0.002,0    c4.536,0,8.513-2.901,9.896-7.22c4.379-13.677,8.529-17.828,22.206-22.206c4.318-1.382,7.22-5.358,7.22-9.896    s-2.901-8.514-7.219-9.896c-13.678-4.378-17.828-8.529-22.207-22.207c-1.383-4.318-5.359-7.219-9.896-7.219h-0.002    c-4.536,0.001-8.513,2.903-9.893,7.22c-4.379,13.677-8.529,17.828-22.206,22.206c-4.318,1.382-7.22,5.358-7.22,9.896    S64.354,126.508,68.671,127.89z M100.772,101.413c3.91,7.612,8.971,12.672,16.582,16.582c-7.612,3.91-12.672,8.969-16.582,16.582    c-3.909-7.612-8.97-12.672-16.581-16.582C91.803,114.085,96.863,109.025,100.772,101.413z"/>
		<path d="M377.862,114.441c13.677,4.378,17.827,8.528,22.205,22.205c1.382,4.318,5.357,7.22,9.894,7.221c0.001,0,0.001,0,0.002,0    c4.536,0,8.513-2.901,9.896-7.219c4.379-13.678,8.529-17.828,22.206-22.206c0.001,0,0.001,0,0.001,0    c4.318-1.382,7.22-5.359,7.219-9.896c0-4.536-2.901-8.513-7.219-9.895c-13.678-4.378-17.828-8.529-22.207-22.207    c-1.383-4.318-5.359-7.219-9.896-7.219c0,0-0.001,0-0.002,0c-4.536,0.001-8.513,2.903-9.893,7.22    c-4.379,13.677-8.529,17.828-22.206,22.206c-4.318,1.382-7.22,5.358-7.22,9.895C370.642,109.081,373.543,113.058,377.862,114.441z     M409.963,87.963c3.91,7.612,8.971,12.672,16.582,16.582c-7.612,3.91-12.672,8.969-16.582,16.582    c-3.91-7.612-8.969-12.672-16.581-16.582C400.993,100.635,406.054,95.575,409.963,87.963z"/>
	</g>
</g>















</svg>
